<svg xmlns="http://www.w3.org/2000/svg" viewBox="0 0 872.6 265.22" width="400px"><defs><style>.cls-1{fill:#0bbbef;}.cls-2{fill:#202249;}</style></defs><title>Thunder Framework Logo</title><g id="Calque_2" data-name="Calque 2"><g id="Calque_1-2" data-name="Calque 1"><path class="cls-1" d="M195.9,14.49,161.52,83.24h49.72L103,261.79A133.22,133.22,0,0,0,195.9,14.49Z"/><path class="cls-1" d="M68.36,146.32,115.51,0A133.22,133.22,0,0,0,92.06,258.74L116.5,146.32Z"/><path class="cls-2" d="M323.08,115.67H294.74V99h77.17v16.7H343.57v71.85H323.08Z"/><path class="cls-2" d="M446.48,126q7.78,7.59,7.78,22.52v39H434.53V151.59q0-8.09-3.54-12.08t-10.25-4q-7.47,0-11.89,4.61t-4.43,13.73v33.65H384.69V93.65h19.73v32.89a26.25,26.25,0,0,1,9.49-6,34.13,34.13,0,0,1,12.14-2.09Q438.71,118.45,446.48,126Z"/><path class="cls-2" d="M543.83,119.46v68.06H525.1v-8.1a26,26,0,0,1-9.36,6.77A29.43,29.43,0,0,1,504,188.53q-13.41,0-21.25-7.72t-7.85-22.89V119.46h19.74V155q0,16.44,13.78,16.44a14.85,14.85,0,0,0,11.39-4.61q4.31-4.62,4.3-13.73V119.46Z"/><path class="cls-2" d="M627.13,126q7.77,7.59,7.78,22.52v39H615.17V151.59q0-8.09-3.54-12.08t-10.25-4q-7.46,0-11.89,4.61t-4.43,13.73v33.65H565.33V119.46h18.85v8a26.09,26.09,0,0,1,9.74-6.64,34,34,0,0,1,12.78-2.34Q619.35,118.45,627.13,126Z"/><path class="cls-2" d="M726,93.65v93.87H707.14v-7.84q-7.33,8.85-21.25,8.85a35.34,35.34,0,0,1-17.4-4.3A30.93,30.93,0,0,1,656.28,172a37.41,37.41,0,0,1-4.42-18.47A37.41,37.41,0,0,1,656.28,135a30.93,30.93,0,0,1,12.21-12.27,35.34,35.34,0,0,1,17.4-4.3q13,0,20.36,8.22v-33ZM701.7,167.21q4.93-5.11,4.93-13.72t-4.93-13.73a17.72,17.72,0,0,0-24.92,0q-4.93,5.13-4.94,13.73t4.94,13.72a17.7,17.7,0,0,0,24.92,0Z"/><path class="cls-2" d="M813.65,159.06H762.16a16.06,16.06,0,0,0,6.58,10,21.77,21.77,0,0,0,12.91,3.67,26.2,26.2,0,0,0,9.42-1.58,22.86,22.86,0,0,0,7.65-5l10.5,11.38q-9.62,11-28.08,11A44.46,44.46,0,0,1,760.77,184a32.9,32.9,0,0,1-13.66-12.46,34.36,34.36,0,0,1-4.81-18.09,34.74,34.74,0,0,1,4.75-18,33.18,33.18,0,0,1,13-12.52,40.34,40.34,0,0,1,36.62-.19,31.42,31.42,0,0,1,12.71,12.33A36.79,36.79,0,0,1,814,153.74C814,154,813.9,155.77,813.65,159.06Zm-46.17-21.89a16.17,16.17,0,0,0-5.57,10.37h33.52a16.34,16.34,0,0,0-5.56-10.31,16.65,16.65,0,0,0-11.13-3.85A17,17,0,0,0,767.48,137.17Z"/><path class="cls-2" d="M858.75,121a35.35,35.35,0,0,1,13.85-2.53v18.22c-2.19-.17-3.67-.26-4.43-.26q-8.48,0-13.28,4.74t-4.81,14.24v32.13H830.35V119.46H849.2v9A21.92,21.92,0,0,1,858.75,121Z"/></g></g></svg>
